<svg t="1632294730700" class="icon" viewBox="0 0 1024 1024" version="1.1" xmlns="http://www.w3.org/2000/svg" p-id="1047" width="200" height="200"><path d="M237.856 231.5328a396.6336 396.6336 0 0 1 149.8496-90.0736C415.616 179.84 460.896 204.8 512 204.8c51.104 0 96.3776-24.96 124.2944-63.3408a396.6336 396.6336 0 0 1 149.8496 90.0736c-17.9904 42.7776-16.4672 93.1776 8.5248 136.4672 23.7184 41.0816 63.5456 67.0592 106.8928 74.56A398.8416 398.8416 0 0 1 908.8 518.4c0 35.4944-4.6592 69.8944-13.4016 102.6304-40.9408 8.8192-78.144 34.24-100.7296 73.3696a153.1264 153.1264 0 0 0-15.1936 117.1008 396.1152 396.1152 0 0 1-160.7936 89.1904A153.088 153.088 0 0 0 512 857.6a153.088 153.088 0 0 0-106.688 43.0912 396.1152 396.1152 0 0 1-160.7872-89.1904 153.1264 153.1264 0 0 0-15.1936-117.1008c-22.592-39.1232-59.7888-64.5504-100.736-73.3696A397.3504 397.3504 0 0 1 115.2 518.4c0-25.9328 2.4896-51.2896 7.2384-75.84 43.3472-7.5008 83.1744-33.4784 106.8928-74.56 24.992-43.2896 26.5152-93.696 8.5248-136.4672zM512 710.4c106.0416 0 192-85.9584 192-192 0-106.0416-85.9584-192-192-192-106.0416 0-192 85.9584-192 192 0 106.0416 85.9584 192 192 192z m0-96c-56.5568 0-102.4-45.8432-102.4-102.4s45.8432-102.4 102.4-102.4 102.4 45.8432 102.4 102.4-45.8432 102.4-102.4 102.4z" fill="#59AAFF" p-id="1048"></path></svg>