<?xml version="1.0" standalone="no"?><!DOCTYPE svg PUBLIC "-//W3C//DTD SVG 1.1//EN" "http://www.w3.org/Graphics/SVG/1.1/DTD/svg11.dtd"><svg t="1649682279141" class="icon" viewBox="0 0 1033 1024" version="1.1" xmlns="http://www.w3.org/2000/svg" p-id="4374" xmlns:xlink="http://www.w3.org/1999/xlink" width="201.7578125" height="200"><defs><style type="text/css">@font-face { font-family: feedback-iconfont; src: url("//at.alicdn.com/t/font_1031158_u69w8yhxdu.woff2?t=1630033759944") format("woff2"), url("//at.alicdn.com/t/font_1031158_u69w8yhxdu.woff?t=1630033759944") format("woff"), url("//at.alicdn.com/t/font_1031158_u69w8yhxdu.ttf?t=1630033759944") format("truetype"); }
</style></defs><path d="M757.832 440c-9.6 0-16-6.4-16-16V171.2c0-17.6-9.6-35.2-28.8-35.2H319.432c-20.8 0-38.4 16-41.6 36.8v251.2c0 9.6-6.4 16-16 16s-16-6.4-16-16V171.2v-1.6c3.2-38.4 35.2-65.6 73.6-65.6h393.6c35.2 0 60.8 28.8 60.8 67.2v252.8c0 9.6-6.4 16-16 16zM319.432 968c-35.2 0-73.6-28.8-73.6-67.2V680c0-9.6 6.4-16 16-16s16 6.4 16 16v220.8c0 17.6 20.8 35.2 41.6 35.2H714.632c16-1.6 28.8-16 27.2-33.6V680c0-9.6 6.4-16 16-16s16 6.4 16 16v220.8c3.2 33.6-22.4 64-56 67.2H319.432z" fill="#dbdbdb" p-id="4375"></path><path d="M757.832 264h-480c-9.6 0-16-6.4-16-16s6.4-16 16-16h480c9.6 0 16 6.4 16 16s-6.4 16-16 16zM757.832 840h-480c-9.6 0-16-6.4-16-16s6.4-16 16-16h480c9.6 0 16 6.4 16 16s-6.4 16-16 16zM549.832 904h-64c-9.6 0-16-6.4-16-16s6.4-16 16-16h64c9.6 0 16 6.4 16 16s-6.4 16-16 16zM485.832 168h128v32h-128zM421.832 168h32v32h-32zM169.032 929.6c-14.4 0-27.2-4.8-38.4-12.8-14.4-9.6-24-25.6-27.2-43.2L1.032 283.2c-6.4-36.8 17.6-70.4 54.4-76.8l156.8-27.2 4.8 32-156.8 27.2c-19.2 3.2-32 20.8-28.8 40l100.8 592c1.6 9.6 6.4 17.6 14.4 22.4 8 4.8 17.6 8 25.6 6.4l38.4-6.4c9.6-1.6 17.6 4.8 19.2 12.8 1.6 8-4.8 17.6-12.8 19.2l-38.4 6.4c-3.2-1.6-6.4-1.6-9.6-1.6z" fill="#dbdbdb" p-id="4376"></path><path d="M36.232 369.6c-8 0-14.4-4.8-16-12.8-1.6-8 4.8-17.6 12.8-19.2l171.2-28.8c9.6-1.6 17.6 4.8 19.2 12.8 1.6 8-4.8 17.6-12.8 19.2L39.432 369.6h-3.2zM117.832 827.2c-8 0-14.4-4.8-16-12.8-1.6-8 4.8-17.6 12.8-19.2l97.6-16c9.6-1.6 17.6 4.8 19.2 12.8 1.6 8-4.8 17.6-12.8 19.2l-97.6 16h-3.2zM865.032 929.6c-3.2 0-8 0-11.2-1.6l-38.4-6.4c-8-1.6-14.4-9.6-12.8-19.2s9.6-14.4 19.2-12.8l38.4 6.4c19.2 3.2 36.8-9.6 40-28.8l100.8-592c1.6-9.6 0-19.2-6.4-25.6s-12.8-12.8-22.4-14.4L815.432 208l4.8-32 156.8 27.2c17.6 3.2 33.6 12.8 43.2 27.2s14.4 32 11.2 49.6l-100.8 592c-4.8 35.2-33.6 57.6-65.6 57.6z" fill="#dbdbdb" p-id="4377"></path><path d="M980.232 369.6H977.032l-169.6-28.8c-8-1.6-14.4-9.6-12.8-19.2 1.6-8 9.6-14.4 19.2-12.8l169.6 28.8c8 1.6 14.4 9.6 12.8 19.2-1.6 8-8 12.8-16 12.8zM916.232 827.2H913.032l-97.6-16c-8-1.6-14.4-9.6-12.8-19.2 1.6-8 9.6-14.4 19.2-12.8l97.6 16c8 1.6 14.4 9.6 12.8 19.2-1.6 6.4-8 12.8-16 12.8zM149.112 250.528l63.088-10.816 5.408 31.52-63.088 10.832zM805.672 271.52l6.736-31.264 115.744 24.96-6.752 31.264zM86.632 262.112l31.52-5.44 5.44 31.552-31.536 5.44zM749.832 638.4c-4.8 0-9.6-1.6-12.8-6.4-4.8-6.4-3.2-17.6 3.2-22.4l62.4-46.4-46.4-62.4c-4.8-6.4-3.2-17.6 3.2-22.4 6.4-4.8 17.6-3.2 22.4 3.2l56 75.2c4.8 6.4 3.2 17.6-3.2 22.4l-75.2 57.6c-3.2 0-6.4 1.6-9.6 1.6zM290.632 638.4c-3.2 0-6.4-1.6-9.6-3.2l-75.2-57.6c-6.4-4.8-8-16-3.2-22.4l56-75.2c4.8-6.4 16-8 22.4-3.2 6.4 4.8 8 16 3.2 22.4l-46.4 62.4 62.4 46.4c6.4 4.8 8 16 3.2 22.4-3.2 4.8-8 8-12.8 8z" fill="#dbdbdb" p-id="4378"></path><path d="M225.032 582.4c-8 0-14.4-4.8-16-12.8-1.6-8 3.2-17.6 12.8-19.2 198.4-40 398.4-41.6 596.8-3.2 8 1.6 14.4 9.6 12.8 19.2-1.6 8-9.6 14.4-19.2 12.8-193.6-38.4-390.4-36.8-584 1.6-1.6 1.6-1.6 1.6-3.2 1.6z" fill="#dbdbdb" p-id="4379"></path></svg>